<svg id="Laag_1" data-name="Laag 1" xmlns="http://www.w3.org/2000/svg" viewBox="0 0 837.34 237.11"><title>KONVERT_LOGO</title><path d="M0,.27H32.19V82.66l37.7-41.3h38.55L65.24,86l44.69,68.84H72.65l-29-46.6L32.19,120.36v34.52H0Z" style="fill:#00a3e0"/><path d="M109.3,98.76v-.42c0-32.62,26.26-59.09,61.64-59.09,35.16,0,61.21,26.05,61.21,58.67v.42c0,32.62-26.26,59.09-61.64,59.09C135.35,157.43,109.3,131.38,109.3,98.76Zm91.08,0v-.42C200.37,81.6,188.3,67,170.51,67c-18.43,0-29.44,14.19-29.44,30.92v.42c0,16.73,12.07,31.35,29.86,31.35C189.36,129.68,200.37,115.49,200.37,98.76Z" style="fill:#00a3e0"/><path d="M250.15,41.36h32.19v16.1c7.41-9.53,16.94-18.22,33.25-18.22,24.36,0,38.55,16.1,38.55,42.15v73.5H322V91.56c0-15.25-7.2-23.09-19.49-23.09s-20.12,7.84-20.12,23.09v63.33H250.15Z" style="fill:#00a3e0"/><path d="M362.41,41.36h34.1l25.42,76,25.63-76H481L436.33,155.73H407.1Z" style="fill:#00a3e0"/><path d="M482.51,98.76v-.42c0-32.41,23.09-59.09,56.13-59.09,37.91,0,55.28,29.44,55.28,61.64,0,2.54-.21,5.51-.42,8.47h-79c3.18,14.61,13.34,22.24,27.75,22.24,10.8,0,18.64-3.39,27.53-11.65l18.43,16.31c-10.59,13.13-25.84,21.18-46.39,21.18C507.71,157.43,482.51,133.49,482.51,98.76Zm80.06-9.53c-1.91-14.4-10.38-24.15-23.93-24.15-13.34,0-22,9.53-24.57,24.15Z" style="fill:#00a3e0"/><path d="M612.56,41.36h32.19V64.23c6.57-15.67,17.16-25.84,36.22-25V72.92h-1.69c-21.39,0-34.52,12.92-34.52,40v41.94H612.56Z" style="fill:#00a3e0"/><path d="M705.79,122.69V68.89H692.23V41.36h13.56v-29H738v29h26.69V68.89H738v48.5c0,7.41,3.18,11,10.38,11a32.74,32.74,0,0,0,15.89-4v25.84c-6.78,4-14.61,6.57-25.42,6.57C719.13,156.79,705.79,149,705.79,122.69Z" style="fill:#00a3e0"/><polygon points="819.74 18 811.04 18 801.84 28.79 801.84 18 794.47 18 794.47 44.6 801.84 44.6 801.84 37.68 804.54 34.72 811.26 44.6 820.08 44.6 809.67 29.4 819.74 18" style="fill:#00a3e0"/><path d="M806.12,0a31.37,31.37,0,0,0-31.37,31.3v.16a31.29,31.29,0,0,0,62.59-.16v-.16A31.21,31.21,0,0,0,806.12,0Zm23.26,31.3a23.34,23.34,0,1,1-46.68.16V31.3a23.34,23.34,0,1,1,46.68-.16Z" style="fill:#00a3e0"/><path d="M179,200.93h4.36l-11.55,28.41c-2.34,5.69-5,7.77-9.15,7.77a12.51,12.51,0,0,1-5.85-1.38l1.38-3.25a8.61,8.61,0,0,0,4.31,1c2.45,0,4-1.28,5.64-5.16l-12.5-27.4h4.52l10,22.93Z" style="fill:#2d2926"/><path d="M186.55,214.81v-.11a14.34,14.34,0,0,1,28.68-.11v.11a14.28,14.28,0,0,1-14.42,14.36A14.09,14.09,0,0,1,186.55,214.81Zm24.47,0v-.11c0-5.91-4.42-10.75-10.22-10.75-6,0-10.06,4.84-10.06,10.64v.11c0,5.9,4.36,10.69,10.16,10.69C206.87,225.4,211,220.61,211,214.81Z" style="fill:#2d2926"/><path d="M222.2,218V200.93h4.1V217c0,5.11,2.77,8.3,7.61,8.3,4.68,0,8.25-3.46,8.25-8.62V200.93h4v27.51h-4v-4.79a10.48,10.48,0,0,1-9.42,5.37C226.08,229,222.2,224.55,222.2,218Z" style="fill:#2d2926"/><path d="M255.4,200.93h4.1v7.18c2-4.57,6-7.87,11.23-7.66v4.42h-.32c-6,0-10.91,4.31-10.91,12.61v11h-4.1Z" style="fill:#2d2926"/><path d="M290.57,200.93h4.36L302.17,223l7.4-22.19H313L320.42,223l7.24-22.08h4.26l-9.68,27.72h-3.57l-7.4-21.71-7.45,21.71H300.2Z" style="fill:#2d2926"/><path d="M335.59,220.45v-.11c0-5.8,4.79-8.89,11.76-8.89a29.17,29.17,0,0,1,8.46,1.17v-1c0-4.95-3-7.5-8.19-7.5a19.14,19.14,0,0,0-8.35,2L338,202.84a22.71,22.71,0,0,1,10-2.29c3.88,0,6.86,1,8.89,3,1.86,1.86,2.82,4.52,2.82,8v16.81H355.8v-4.15a12.05,12.05,0,0,1-9.95,4.74C340.75,229,335.59,226.09,335.59,220.45Zm20.27-2.13v-2.66a28.67,28.67,0,0,0-8.09-1.17c-5.16,0-8,2.24-8,5.69v.11c0,3.46,3.19,5.48,6.92,5.48C351.71,225.77,355.86,222.69,355.86,218.32Z" style="fill:#2d2926"/><path d="M388,200.93h4.36l-11.55,28.41c-2.34,5.69-5,7.77-9.15,7.77a12.5,12.5,0,0,1-5.85-1.38l1.38-3.25a8.61,8.61,0,0,0,4.31,1c2.45,0,4-1.28,5.64-5.16l-12.5-27.4h4.52l10,22.93Z" style="fill:#2d2926"/><path d="M413.11,214.81v-.11a14.34,14.34,0,0,1,28.68-.11v.11a14.28,14.28,0,0,1-14.42,14.36A14.09,14.09,0,0,1,413.11,214.81Zm24.47,0v-.11c0-5.91-4.41-10.75-10.22-10.75-6,0-10.06,4.84-10.06,10.64v.11c0,5.9,4.36,10.69,10.16,10.69C433.43,225.4,437.58,220.61,437.58,214.81Z" style="fill:#2d2926"/><path d="M450.73,204.54H447V201h3.78v-2.39c0-3.14.85-5.53,2.39-7.08a8.1,8.1,0,0,1,5.91-2.13,12.44,12.44,0,0,1,4.52.69v3.56a13.68,13.68,0,0,0-4-.69c-3.19,0-4.79,1.92-4.79,5.85V201h8.73v3.51h-8.67v23.89h-4.1Z" style="fill:#2d2926"/><path d="M482.33,200.93h4.36L493.93,223l7.4-22.19h3.41L512.18,223l7.24-22.08h4.26L514,228.65h-3.56L503,206.94l-7.45,21.71H492Z" style="fill:#2d2926"/><path d="M527.45,214.81v-.11a14.34,14.34,0,0,1,28.68-.11v.11a14.28,14.28,0,0,1-14.42,14.36A14.09,14.09,0,0,1,527.45,214.81Zm24.47,0v-.11c0-5.91-4.41-10.75-10.22-10.75-6,0-10.06,4.84-10.06,10.64v.11c0,5.9,4.36,10.69,10.16,10.69C547.78,225.4,551.93,220.61,551.93,214.81Z" style="fill:#2d2926"/><path d="M563.53,200.93h4.1v7.18c2-4.57,6-7.87,11.23-7.66v4.42h-.32c-6,0-10.91,4.31-10.91,12.61v11h-4.1Z" style="fill:#2d2926"/><path d="M585.08,189.59h4.1v26.82L604,200.93h5.11l-11.55,11.81,11.92,15.7H604.6l-9.84-12.82-5.59,5.64v7.18h-4.1Z" style="fill:#2d2926"/></svg>